<mxfile host="app.diagrams.net" modified="2024-02-29T12:06:40.792Z" agent="Mozilla/5.0 (Windows NT 10.0; Win64; x64; rv:124.0) Gecko/20100101 Firefox/124.0" version="22.1.16" etag="H9N6NVEGTXft-PMsOIwY" type="github">
  <diagram name="PÃ¡gina-1" id="0NNBYk4YnbvM4UbEr95y">
    <mxGraphModel>
      <root>
        <mxCell id="0" />
        <mxCell id="1" parent="0" />
      </root>
    </mxGraphModel>
  </diagram>
</mxfile>
